<mxfile host="app.diagrams.net" modified="2023-09-11T11:36:19.483Z" agent="Mozilla/5.0 (Windows NT 10.0; Win64; x64) AppleWebKit/537.36 (KHTML, like Gecko) Chrome/116.0.0.0 Safari/537.36" etag="QXseNPsJ4yE28kJ80yys" version="21.7.4" type="device">
  <diagram name="Pagina-1" id="mI-50kanhiomgBPoCNXN">
    <mxGraphModel dx="1105" dy="596" grid="1" gridSize="10" guides="1" tooltips="1" connect="1" arrows="1" fold="1" page="1" pageScale="1" pageWidth="827" pageHeight="1169" math="0" shadow="0">
      <root>
        <mxCell id="0" />
        <mxCell id="1" parent="0" />
        <mxCell id="186iuNkC0A0BUvHMbxIV-19" style="edgeStyle=orthogonalEdgeStyle;rounded=0;orthogonalLoop=1;jettySize=auto;html=1;entryX=0.5;entryY=0;entryDx=0;entryDy=0;" edge="1" parent="1" source="186iuNkC0A0BUvHMbxIV-1" target="186iuNkC0A0BUvHMbxIV-15">
          <mxGeometry relative="1" as="geometry" />
        </mxCell>
        <mxCell id="186iuNkC0A0BUvHMbxIV-1" value="INTERVIEW" style="swimlane;fontStyle=0;childLayout=stackLayout;horizontal=1;startSize=26;fillColor=none;horizontalStack=0;resizeParent=1;resizeParentMax=0;resizeLast=0;collapsible=1;marginBottom=0;whiteSpace=wrap;html=1;" vertex="1" parent="1">
          <mxGeometry x="340" y="240" width="140" height="170" as="geometry" />
        </mxCell>
        <mxCell id="186iuNkC0A0BUvHMbxIV-2" value="PK:ID:int&lt;br&gt;&lt;br&gt;FK:RECRUITER_ID:int&lt;br&gt;&lt;br&gt;FK:CANDIDATE_ID:int" style="text;strokeColor=none;fillColor=none;align=left;verticalAlign=top;spacingLeft=4;spacingRight=4;overflow=hidden;rotatable=0;points=[[0,0.5],[1,0.5]];portConstraint=eastwest;whiteSpace=wrap;html=1;" vertex="1" parent="186iuNkC0A0BUvHMbxIV-1">
          <mxGeometry y="26" width="140" height="82" as="geometry" />
        </mxCell>
        <mxCell id="186iuNkC0A0BUvHMbxIV-4" value="DAY:date&lt;br&gt;&lt;br&gt;STARTTIME:time&lt;br&gt;&lt;br&gt;" style="text;strokeColor=none;fillColor=none;align=left;verticalAlign=top;spacingLeft=4;spacingRight=4;overflow=hidden;rotatable=0;points=[[0,0.5],[1,0.5]];portConstraint=eastwest;whiteSpace=wrap;html=1;" vertex="1" parent="186iuNkC0A0BUvHMbxIV-1">
          <mxGeometry y="108" width="140" height="62" as="geometry" />
        </mxCell>
        <mxCell id="186iuNkC0A0BUvHMbxIV-10" value="RECRUITER" style="swimlane;fontStyle=0;childLayout=stackLayout;horizontal=1;startSize=26;fillColor=none;horizontalStack=0;resizeParent=1;resizeParentMax=0;resizeLast=0;collapsible=1;marginBottom=0;whiteSpace=wrap;html=1;" vertex="1" parent="1">
          <mxGeometry x="560" y="240" width="140" height="164" as="geometry" />
        </mxCell>
        <mxCell id="186iuNkC0A0BUvHMbxIV-11" value="PK:ID:int" style="text;strokeColor=none;fillColor=none;align=left;verticalAlign=top;spacingLeft=4;spacingRight=4;overflow=hidden;rotatable=0;points=[[0,0.5],[1,0.5]];portConstraint=eastwest;whiteSpace=wrap;html=1;" vertex="1" parent="186iuNkC0A0BUvHMbxIV-10">
          <mxGeometry y="26" width="140" height="26" as="geometry" />
        </mxCell>
        <mxCell id="186iuNkC0A0BUvHMbxIV-13" value="LASTNAME:varchar&lt;br&gt;&lt;br&gt;FIRSTNAME:varchar&lt;br&gt;&lt;br&gt;EMAIL:varchar&lt;br&gt;&lt;br&gt;PASSWORD: varchar" style="text;strokeColor=none;fillColor=none;align=left;verticalAlign=top;spacingLeft=4;spacingRight=4;overflow=hidden;rotatable=0;points=[[0,0.5],[1,0.5]];portConstraint=eastwest;whiteSpace=wrap;html=1;" vertex="1" parent="186iuNkC0A0BUvHMbxIV-10">
          <mxGeometry y="52" width="140" height="112" as="geometry" />
        </mxCell>
        <mxCell id="186iuNkC0A0BUvHMbxIV-14" style="edgeStyle=orthogonalEdgeStyle;rounded=0;orthogonalLoop=1;jettySize=auto;html=1;exitX=1;exitY=0.5;exitDx=0;exitDy=0;entryX=0;entryY=0.5;entryDx=0;entryDy=0;" edge="1" parent="1">
          <mxGeometry relative="1" as="geometry">
            <mxPoint x="480" y="305" as="sourcePoint" />
            <mxPoint x="560" y="305" as="targetPoint" />
          </mxGeometry>
        </mxCell>
        <mxCell id="186iuNkC0A0BUvHMbxIV-24" style="edgeStyle=orthogonalEdgeStyle;rounded=0;orthogonalLoop=1;jettySize=auto;html=1;entryX=0.5;entryY=0;entryDx=0;entryDy=0;" edge="1" parent="1" source="186iuNkC0A0BUvHMbxIV-15" target="186iuNkC0A0BUvHMbxIV-20">
          <mxGeometry relative="1" as="geometry" />
        </mxCell>
        <mxCell id="186iuNkC0A0BUvHMbxIV-15" value="INTERVIEW_HAS_QUESTIONS" style="swimlane;fontStyle=0;childLayout=stackLayout;horizontal=1;startSize=26;fillColor=none;horizontalStack=0;resizeParent=1;resizeParentMax=0;resizeLast=0;collapsible=1;marginBottom=0;whiteSpace=wrap;html=1;" vertex="1" parent="1">
          <mxGeometry x="317" y="450" width="186" height="140" as="geometry" />
        </mxCell>
        <mxCell id="186iuNkC0A0BUvHMbxIV-16" value="PK:ID:int" style="text;strokeColor=none;fillColor=none;align=left;verticalAlign=top;spacingLeft=4;spacingRight=4;overflow=hidden;rotatable=0;points=[[0,0.5],[1,0.5]];portConstraint=eastwest;whiteSpace=wrap;html=1;" vertex="1" parent="186iuNkC0A0BUvHMbxIV-15">
          <mxGeometry y="26" width="186" height="26" as="geometry" />
        </mxCell>
        <mxCell id="186iuNkC0A0BUvHMbxIV-17" value="FK:INTERVIEW_ID:int" style="text;strokeColor=none;fillColor=none;align=left;verticalAlign=top;spacingLeft=4;spacingRight=4;overflow=hidden;rotatable=0;points=[[0,0.5],[1,0.5]];portConstraint=eastwest;whiteSpace=wrap;html=1;" vertex="1" parent="186iuNkC0A0BUvHMbxIV-15">
          <mxGeometry y="52" width="186" height="26" as="geometry" />
        </mxCell>
        <mxCell id="186iuNkC0A0BUvHMbxIV-18" value="FK:QUESTION_ID:int&lt;br&gt;&lt;br&gt;RATING:varchar" style="text;strokeColor=none;fillColor=none;align=left;verticalAlign=top;spacingLeft=4;spacingRight=4;overflow=hidden;rotatable=0;points=[[0,0.5],[1,0.5]];portConstraint=eastwest;whiteSpace=wrap;html=1;" vertex="1" parent="186iuNkC0A0BUvHMbxIV-15">
          <mxGeometry y="78" width="186" height="62" as="geometry" />
        </mxCell>
        <mxCell id="186iuNkC0A0BUvHMbxIV-35" style="edgeStyle=orthogonalEdgeStyle;rounded=0;orthogonalLoop=1;jettySize=auto;html=1;entryX=0;entryY=0.5;entryDx=0;entryDy=0;" edge="1" parent="1" source="186iuNkC0A0BUvHMbxIV-20" target="186iuNkC0A0BUvHMbxIV-27">
          <mxGeometry relative="1" as="geometry" />
        </mxCell>
        <mxCell id="186iuNkC0A0BUvHMbxIV-20" value="QUESTION" style="swimlane;fontStyle=0;childLayout=stackLayout;horizontal=1;startSize=26;fillColor=none;horizontalStack=0;resizeParent=1;resizeParentMax=0;resizeLast=0;collapsible=1;marginBottom=0;whiteSpace=wrap;html=1;" vertex="1" parent="1">
          <mxGeometry x="340" y="660" width="140" height="190" as="geometry" />
        </mxCell>
        <mxCell id="186iuNkC0A0BUvHMbxIV-21" value="PK;ID:int" style="text;strokeColor=none;fillColor=none;align=left;verticalAlign=top;spacingLeft=4;spacingRight=4;overflow=hidden;rotatable=0;points=[[0,0.5],[1,0.5]];portConstraint=eastwest;whiteSpace=wrap;html=1;" vertex="1" parent="186iuNkC0A0BUvHMbxIV-20">
          <mxGeometry y="26" width="140" height="26" as="geometry" />
        </mxCell>
        <mxCell id="186iuNkC0A0BUvHMbxIV-22" value="ROLE:char" style="text;strokeColor=none;fillColor=none;align=left;verticalAlign=top;spacingLeft=4;spacingRight=4;overflow=hidden;rotatable=0;points=[[0,0.5],[1,0.5]];portConstraint=eastwest;whiteSpace=wrap;html=1;" vertex="1" parent="186iuNkC0A0BUvHMbxIV-20">
          <mxGeometry y="52" width="140" height="26" as="geometry" />
        </mxCell>
        <mxCell id="186iuNkC0A0BUvHMbxIV-23" value="CATEGORY:char&lt;br&gt;&lt;br&gt;QUESTION_TYPE:char&lt;br&gt;&lt;br&gt;ANSWER_TYPE:char&lt;br&gt;&lt;br&gt;QUESTION:varchar" style="text;strokeColor=none;fillColor=none;align=left;verticalAlign=top;spacingLeft=4;spacingRight=4;overflow=hidden;rotatable=0;points=[[0,0.5],[1,0.5]];portConstraint=eastwest;whiteSpace=wrap;html=1;" vertex="1" parent="186iuNkC0A0BUvHMbxIV-20">
          <mxGeometry y="78" width="140" height="112" as="geometry" />
        </mxCell>
        <mxCell id="186iuNkC0A0BUvHMbxIV-25" value="EXAMPLE_ANSWER" style="swimlane;fontStyle=0;childLayout=stackLayout;horizontal=1;startSize=26;fillColor=none;horizontalStack=0;resizeParent=1;resizeParentMax=0;resizeLast=0;collapsible=1;marginBottom=0;whiteSpace=wrap;html=1;" vertex="1" parent="1">
          <mxGeometry x="580" y="690" width="140" height="104" as="geometry" />
        </mxCell>
        <mxCell id="186iuNkC0A0BUvHMbxIV-26" value="PK:ID:int" style="text;strokeColor=none;fillColor=none;align=left;verticalAlign=top;spacingLeft=4;spacingRight=4;overflow=hidden;rotatable=0;points=[[0,0.5],[1,0.5]];portConstraint=eastwest;whiteSpace=wrap;html=1;" vertex="1" parent="186iuNkC0A0BUvHMbxIV-25">
          <mxGeometry y="26" width="140" height="26" as="geometry" />
        </mxCell>
        <mxCell id="186iuNkC0A0BUvHMbxIV-27" value="FK:QUESTION_ID:int" style="text;strokeColor=none;fillColor=none;align=left;verticalAlign=top;spacingLeft=4;spacingRight=4;overflow=hidden;rotatable=0;points=[[0,0.5],[1,0.5]];portConstraint=eastwest;whiteSpace=wrap;html=1;" vertex="1" parent="186iuNkC0A0BUvHMbxIV-25">
          <mxGeometry y="52" width="140" height="26" as="geometry" />
        </mxCell>
        <mxCell id="186iuNkC0A0BUvHMbxIV-28" value="ANSWER:varchar" style="text;strokeColor=none;fillColor=none;align=left;verticalAlign=top;spacingLeft=4;spacingRight=4;overflow=hidden;rotatable=0;points=[[0,0.5],[1,0.5]];portConstraint=eastwest;whiteSpace=wrap;html=1;" vertex="1" parent="186iuNkC0A0BUvHMbxIV-25">
          <mxGeometry y="78" width="140" height="26" as="geometry" />
        </mxCell>
        <mxCell id="186iuNkC0A0BUvHMbxIV-30" value="CANDIDATE" style="swimlane;fontStyle=0;childLayout=stackLayout;horizontal=1;startSize=26;fillColor=none;horizontalStack=0;resizeParent=1;resizeParentMax=0;resizeLast=0;collapsible=1;marginBottom=0;whiteSpace=wrap;html=1;" vertex="1" parent="1">
          <mxGeometry x="110" y="242" width="140" height="160" as="geometry" />
        </mxCell>
        <mxCell id="186iuNkC0A0BUvHMbxIV-31" value="PK:ID:int" style="text;strokeColor=none;fillColor=none;align=left;verticalAlign=top;spacingLeft=4;spacingRight=4;overflow=hidden;rotatable=0;points=[[0,0.5],[1,0.5]];portConstraint=eastwest;whiteSpace=wrap;html=1;" vertex="1" parent="186iuNkC0A0BUvHMbxIV-30">
          <mxGeometry y="26" width="140" height="26" as="geometry" />
        </mxCell>
        <mxCell id="186iuNkC0A0BUvHMbxIV-32" value="LASTNAME:varchar" style="text;strokeColor=none;fillColor=none;align=left;verticalAlign=top;spacingLeft=4;spacingRight=4;overflow=hidden;rotatable=0;points=[[0,0.5],[1,0.5]];portConstraint=eastwest;whiteSpace=wrap;html=1;" vertex="1" parent="186iuNkC0A0BUvHMbxIV-30">
          <mxGeometry y="52" width="140" height="26" as="geometry" />
        </mxCell>
        <mxCell id="186iuNkC0A0BUvHMbxIV-33" value="FIRSTNAME:varchar&lt;br&gt;&lt;br&gt;EMAIL:varchar&lt;br&gt;&lt;br&gt;ROLE: char" style="text;strokeColor=none;fillColor=none;align=left;verticalAlign=top;spacingLeft=4;spacingRight=4;overflow=hidden;rotatable=0;points=[[0,0.5],[1,0.5]];portConstraint=eastwest;whiteSpace=wrap;html=1;" vertex="1" parent="186iuNkC0A0BUvHMbxIV-30">
          <mxGeometry y="78" width="140" height="82" as="geometry" />
        </mxCell>
        <mxCell id="186iuNkC0A0BUvHMbxIV-34" style="edgeStyle=orthogonalEdgeStyle;rounded=0;orthogonalLoop=1;jettySize=auto;html=1;entryX=1;entryY=0.5;entryDx=0;entryDy=0;" edge="1" parent="1" source="186iuNkC0A0BUvHMbxIV-2" target="186iuNkC0A0BUvHMbxIV-32">
          <mxGeometry relative="1" as="geometry" />
        </mxCell>
      </root>
    </mxGraphModel>
  </diagram>
</mxfile>
